<?xml version="1.0" encoding="UTF-8" standalone="no"?>
<svg width="30px" height="30px" viewBox="0 0 30 30" version="1.1" xmlns="http://www.w3.org/2000/svg" xmlns:xlink="http://www.w3.org/1999/xlink">
    <title>info button</title>
    <g id="Page-1" stroke="none" stroke-width="1" fill="none" fill-rule="evenodd">
        <g id="Info-Button">
            <circle id="Oval-52" cx="15" cy="15" r="15"></circle>
            <circle id="Oval-44" stroke="#157EFB" cx="15" cy="15" r="13"></circle>
            <circle id="Oval-45" fill="#157EFB" cx="15" cy="15" r="10.8333333"></circle>
            <path d="M16.417,16.4386667 L16.417,10.6666667 L14.376,10.6666667 L14.376,16.4386667 C14.376,17.1320035 14.2373347,17.641165 13.96,17.9661667 C13.6826653,18.2911683 13.1800036,18.4536667 12.452,18.4536667 C12.0359979,18.4536667 11.7045012,18.3951673 11.4575,18.2781667 C11.2104988,18.1611661 11.0176674,18.0095009 10.879,17.8231667 C10.7403326,17.6368324 10.6493336,17.4223345 10.606,17.1796667 C10.5626665,16.9369988 10.541,16.6900013 10.541,16.4386667 L10.541,10.6666667 L8.5,10.6666667 L8.5,16.4386667 C8.5,17.7040063 8.84449655,18.639997 9.5335,19.2466667 C10.2225034,19.8533364 11.1953271,20.1566667 12.452,20.1566667 C13.6913395,20.1566667 14.6619965,19.8511697 15.364,19.2401667 C16.0660035,18.6291636 16.417,17.6953396 16.417,16.4386667 L16.417,16.4386667 L16.417,16.4386667 Z M18.172,10.6666667 L18.172,19.9486667 L20.213,19.9486667 L20.213,10.6666667 L18.172,10.6666667 L18.172,10.6666667 Z" id="UI" fill="#FFFFFF"></path>
        </g>
    </g>
</svg>